<svg id="Layer_1" xmlns="http://www.w3.org/2000/svg" viewBox="-185 277 240 240"><style>.st0{fill:#FFFFFF;}</style><path class="st0" d="M55 322.6c-8.8 3.9-18.3 6.6-28.3 7.8 10.2-6.1 18-15.7 21.6-27.2-9.5 5.6-20.1 9.7-31.3 11.9-9-9.6-21.8-15.5-35.9-15.5-27.2 0-49.2 22-49.2 49.2 0 3.9.4 7.6 1.3 11.2-40.9-2.1-77.2-21.7-101.5-51.5-4.2 7.3-6.7 15.7-6.7 24.7 0 17.1 8.7 32.2 21.9 41-8.1-.3-15.7-2.5-22.3-6.2v.6c0 23.9 17 43.8 39.5 48.3-4.1 1.1-8.5 1.7-13 1.7-3.2 0-6.3-.3-9.3-.9 6.3 19.6 24.5 33.8 46 34.2-16.9 13.2-38.1 21.1-61.2 21.1-4 0-7.9-.2-11.7-.7 21.8 14 47.7 22.1 75.5 22.1 90.6 0 140.1-75 140.1-140.1 0-2.1 0-4.3-.1-6.4 9.7-6.8 18-15.5 24.6-25.3z"/></svg>